<?xml version="1.0" encoding="UTF-8" standalone="no"?>
<!-- Created by diasvg.py -->
<svg width="3.389cm" height="2.001cm" viewBox="24.106 19.549 27.494 21.551"
 xmlns="http://www.w3.org/2000/svg"
 xmlns:xlink="http://www.w3.org/1999/xlink">
<path stroke="none" fill="#0078AA" stroke-width="0.002" d="M 27.494,20.962 L 27.491,20.932 L 27.485,20.903 L 27.474,20.873 L 27.459,20.844 L 27.439,20.815 L 27.416,20.786 L 27.388,20.758 L 27.357,20.730 L 27.321,20.703 L 27.281,20.677 L 27.237,20.652 L 27.190,20.626 L 27.139,20.602 L 27.085,20.579 L 27.027,20.557 L 26.966,20.536 L 26.903,20.516 L 26.837,20.497 L 26.768,20.480 L 26.696,20.463 L 26.622,20.448 L 26.545,20.435 L 26.467,20.422 L 26.388,20.411 L 26.307,20.401 L 26.224,20.394 L 26.141,20.387 L 26.056,20.382 L 25.971,20.377 L 25.886,20.376 L 25.800,20.374 L 25.800,20.374 L 25.714,20.376 L 25.629,20.377 L 25.544,20.382 L 25.459,20.387 L 25.376,20.394 L 25.293,20.401 L 25.212,20.411 L 25.132,20.422 L 25.054,20.435 L 24.978,20.448 L 24.904,20.463 L 24.832,20.480 L 24.763,20.497 L 24.697,20.516 L 24.633,20.536 L 24.573,20.557 L 24.515,20.579 L 24.461,20.602 L 24.410,20.626 L 24.363,20.652 L 24.319,20.677 L 24.279,20.703 L 24.243,20.730 L 24.212,20.758 L 24.184,20.786 L 24.161,20.815 L 24.141,20.844 L 24.125,20.873 L 24.114,20.903 L 24.109,20.932 L 24.106,20.962 L 24.106,20.962 L 24.109,20.992 L 24.114,21.022 L 24.125,21.051 L 24.141,21.080 L 24.161,21.110 L 24.184,21.138 L 24.212,21.166 L 24.243,21.194 L 24.279,21.221 L 24.319,21.247 L 24.363,21.273 L 24.410,21.298 L 24.461,21.322 L 24.515,21.345 L 24.573,21.368 L 24.633,21.389 L 24.697,21.408 L 24.763,21.427 L 24.832,21.444 L 24.904,21.461 L 24.978,21.476 L 25.054,21.490 L 25.132,21.502 L 25.212,21.514 L 25.293,21.523 L 25.376,21.531 L 25.459,21.538 L 25.544,21.543 L 25.629,21.547 L 25.714,21.550 L 25.800,21.550 L 25.800,21.550 L 25.886,21.550 L 25.971,21.547 L 26.056,21.543 L 26.141,21.538 L 26.224,21.531 L 26.307,21.523 L 26.388,21.514 L 26.467,21.502 L 26.545,21.490 L 26.622,21.476 L 26.696,21.461 L 26.768,21.444 L 26.837,21.427 L 26.903,21.408 L 26.966,21.389 L 27.027,21.368 L 27.085,21.345 L 27.139,21.322 L 27.190,21.298 L 27.237,21.273 L 27.281,21.247 L 27.321,21.221 L 27.357,21.194 L 27.388,21.166 L 27.416,21.138 L 27.439,21.110 L 27.459,21.080 L 27.474,21.051 L 27.485,21.022 L 27.491,20.992 L 27.494,20.962 "/>
<path stroke="#AAE6FF" fill="none" stroke-width="0.002"  d="M 27.474,20.953 L 27.471,20.923 L 27.466,20.894 L 27.455,20.865 L 27.440,20.836 L 27.420,20.808 L 27.396,20.780 L 27.370,20.753 L 27.338,20.725 L 27.302,20.699 L 27.263,20.672 L 27.219,20.647 L 27.172,20.622 L 27.122,20.599 L 27.068,20.576 L 27.011,20.554 L 26.950,20.534 L 26.887,20.515 L 26.821,20.496 L 26.752,20.479 L 26.681,20.462 L 26.607,20.448 L 26.532,20.434 L 26.455,20.422 L 26.375,20.411 L 26.295,20.401 L 26.212,20.394 L 26.130,20.387 L 26.046,20.382 L 25.961,20.379 L 25.876,20.376 L 25.791,20.376 L 25.791,20.376 L 25.705,20.376 L 25.620,20.379 L 25.535,20.382 L 25.452,20.387 L 25.369,20.394 L 25.286,20.401 L 25.206,20.411 L 25.126,20.422 L 25.049,20.434 L 24.974,20.448 L 24.899,20.462 L 24.828,20.479 L 24.760,20.496 L 24.694,20.515 L 24.630,20.534 L 24.570,20.554 L 24.513,20.576 L 24.460,20.599 L 24.409,20.622 L 24.361,20.647 L 24.319,20.672 L 24.279,20.699 L 24.243,20.725 L 24.212,20.753 L 24.184,20.780 L 24.161,20.808 L 24.142,20.836 L 24.126,20.865 L 24.115,20.894 L 24.109,20.923 L 24.107,20.953 L 24.107,20.953 L 24.109,20.982 L 24.115,21.012 L 24.126,21.040 L 24.142,21.069 L 24.161,21.098 L 24.184,21.125 L 24.212,21.153 L 24.243,21.181 L 24.279,21.207 L 24.319,21.233 L 24.361,21.259 L 24.409,21.282 L 24.460,21.307 L 24.513,21.330 L 24.570,21.351 L 24.630,21.371 L 24.694,21.391 L 24.760,21.410 L 24.828,21.426 L 24.899,21.443 L 24.974,21.458 L 25.049,21.471 L 25.126,21.483 L 25.206,21.494 L 25.286,21.504 L 25.369,21.511 L 25.452,21.518 L 25.535,21.523 L 25.620,21.527 L 25.705,21.530 L 25.791,21.530 L 25.791,21.530 L 25.876,21.530 L 25.961,21.527 L 26.046,21.523 L 26.130,21.518 L 26.212,21.511 L 26.295,21.504 L 26.375,21.494 L 26.455,21.483 L 26.532,21.471 L 26.607,21.458 L 26.681,21.443 L 26.752,21.426 L 26.821,21.410 L 26.887,21.391 L 26.950,21.371 L 27.011,21.351 L 27.068,21.330 L 27.122,21.307 L 27.172,21.282 L 27.219,21.259 L 27.263,21.233 L 27.302,21.207 L 27.338,21.181 L 27.370,21.153 L 27.396,21.125 L 27.420,21.098 L 27.440,21.069 L 27.455,21.040 L 27.466,21.012 L 27.471,20.982 L 27.474,20.953 "/>
<path stroke="none" fill="#0078AA" stroke-width="0.002" d="M 24.107,20.148 L 24.107,20.973 L 27.474,20.973 L 27.474,20.148 L 24.107,20.148 "/>
<path stroke="none" fill="#00B4FF" stroke-width="0.002" d="M 27.494,20.138 L 27.491,20.108 L 27.485,20.078 L 27.474,20.049 L 27.459,20.019 L 27.439,19.990 L 27.416,19.961 L 27.388,19.933 L 27.357,19.906 L 27.321,19.879 L 27.281,19.853 L 27.237,19.827 L 27.190,19.802 L 27.139,19.777 L 27.085,19.755 L 27.027,19.733 L 26.966,19.711 L 26.903,19.691 L 26.837,19.673 L 26.768,19.655 L 26.696,19.639 L 26.622,19.624 L 26.545,19.610 L 26.467,19.598 L 26.388,19.586 L 26.307,19.577 L 26.224,19.569 L 26.141,19.562 L 26.056,19.557 L 25.971,19.553 L 25.886,19.550 L 25.800,19.550 L 25.800,19.550 L 25.714,19.550 L 25.629,19.553 L 25.544,19.557 L 25.459,19.562 L 25.376,19.569 L 25.293,19.577 L 25.212,19.586 L 25.132,19.598 L 25.054,19.610 L 24.978,19.624 L 24.904,19.639 L 24.832,19.655 L 24.763,19.673 L 24.697,19.691 L 24.633,19.711 L 24.573,19.733 L 24.515,19.755 L 24.461,19.777 L 24.410,19.802 L 24.363,19.827 L 24.319,19.853 L 24.279,19.879 L 24.243,19.906 L 24.212,19.933 L 24.184,19.961 L 24.161,19.990 L 24.141,20.019 L 24.125,20.049 L 24.114,20.078 L 24.109,20.108 L 24.106,20.138 L 24.106,20.138 L 24.109,20.168 L 24.114,20.197 L 24.125,20.227 L 24.141,20.255 L 24.161,20.285 L 24.184,20.313 L 24.212,20.342 L 24.243,20.370 L 24.279,20.397 L 24.319,20.422 L 24.363,20.448 L 24.410,20.474 L 24.461,20.497 L 24.515,20.520 L 24.573,20.543 L 24.633,20.564 L 24.697,20.584 L 24.763,20.602 L 24.832,20.620 L 24.904,20.636 L 24.978,20.652 L 25.054,20.665 L 25.132,20.678 L 25.212,20.689 L 25.293,20.698 L 25.376,20.706 L 25.459,20.713 L 25.544,20.718 L 25.629,20.722 L 25.714,20.725 L 25.800,20.725 L 25.800,20.725 L 25.886,20.725 L 25.971,20.722 L 26.056,20.718 L 26.141,20.713 L 26.224,20.706 L 26.307,20.698 L 26.388,20.689 L 26.467,20.678 L 26.545,20.665 L 26.622,20.652 L 26.696,20.636 L 26.768,20.620 L 26.837,20.602 L 26.903,20.584 L 26.966,20.564 L 27.027,20.543 L 27.085,20.520 L 27.139,20.497 L 27.190,20.474 L 27.237,20.448 L 27.281,20.422 L 27.321,20.397 L 27.357,20.370 L 27.388,20.342 L 27.416,20.313 L 27.439,20.285 L 27.459,20.255 L 27.474,20.227 L 27.485,20.197 L 27.491,20.168 L 27.494,20.138 "/>
<path stroke="#AAE6FF" fill="none" stroke-width="0.002"  d="M 27.474,20.128 L 27.471,20.098 L 27.466,20.070 L 27.455,20.041 L 27.440,20.012 L 27.420,19.984 L 27.396,19.955 L 27.370,19.928 L 27.338,19.900 L 27.302,19.874 L 27.263,19.847 L 27.219,19.823 L 27.172,19.798 L 27.122,19.774 L 27.068,19.752 L 27.011,19.729 L 26.950,19.710 L 26.887,19.690 L 26.821,19.671 L 26.752,19.654 L 26.681,19.637 L 26.607,19.623 L 26.532,19.609 L 26.455,19.598 L 26.375,19.586 L 26.295,19.577 L 26.212,19.569 L 26.130,19.562 L 26.046,19.557 L 25.961,19.553 L 25.876,19.551 L 25.791,19.550 L 25.791,19.550 L 25.705,19.551 L 25.620,19.553 L 25.535,19.557 L 25.452,19.562 L 25.369,19.569 L 25.286,19.577 L 25.206,19.586 L 25.126,19.598 L 25.049,19.609 L 24.974,19.623 L 24.899,19.637 L 24.828,19.654 L 24.760,19.671 L 24.694,19.690 L 24.630,19.710 L 24.570,19.729 L 24.513,19.752 L 24.460,19.774 L 24.409,19.798 L 24.361,19.823 L 24.319,19.847 L 24.279,19.874 L 24.243,19.900 L 24.212,19.928 L 24.184,19.955 L 24.161,19.984 L 24.142,20.012 L 24.126,20.041 L 24.115,20.070 L 24.109,20.098 L 24.107,20.128 L 24.107,20.128 L 24.109,20.158 L 24.115,20.187 L 24.126,20.216 L 24.142,20.244 L 24.161,20.273 L 24.184,20.301 L 24.212,20.328 L 24.243,20.356 L 24.279,20.382 L 24.319,20.409 L 24.361,20.434 L 24.409,20.458 L 24.460,20.482 L 24.513,20.505 L 24.570,20.526 L 24.630,20.546 L 24.694,20.566 L 24.760,20.584 L 24.828,20.602 L 24.899,20.618 L 24.974,20.634 L 25.049,20.646 L 25.126,20.659 L 25.206,20.670 L 25.286,20.679 L 25.369,20.688 L 25.452,20.694 L 25.535,20.699 L 25.620,20.703 L 25.705,20.705 L 25.791,20.706 L 25.791,20.706 L 25.876,20.705 L 25.961,20.703 L 26.046,20.699 L 26.130,20.694 L 26.212,20.688 L 26.295,20.679 L 26.375,20.670 L 26.455,20.659 L 26.532,20.646 L 26.607,20.634 L 26.681,20.618 L 26.752,20.602 L 26.821,20.584 L 26.887,20.566 L 26.950,20.546 L 27.011,20.526 L 27.068,20.505 L 27.122,20.482 L 27.172,20.458 L 27.219,20.434 L 27.263,20.409 L 27.302,20.382 L 27.338,20.356 L 27.370,20.328 L 27.396,20.301 L 27.420,20.273 L 27.440,20.244 L 27.455,20.216 L 27.466,20.187 L 27.471,20.158 L 27.474,20.128 "/>
<path stroke="none" fill="#000000" stroke-width="0.002" d="M 25.832,20.004 L 26.078,20.087 L 26.674,19.839 L 26.940,19.921 L 26.796,19.716 L 26.099,19.716 L 26.385,19.777 L 25.832,20.004 "/>
<path stroke="none" fill="#000000" stroke-width="0.002" d="M 25.728,20.231 L 25.483,20.148 L 24.907,20.397 L 24.620,20.313 L 24.763,20.540 L 25.483,20.540 L 25.174,20.458 L 25.728,20.231 "/>
<path stroke="none" fill="#000000" stroke-width="0.002" d="M 24.682,19.777 L 24.927,19.695 L 25.524,19.921 L 25.791,19.860 L 25.647,20.065 L 24.948,20.065 L 25.235,20.004 L 24.682,19.777 "/>
<path stroke="none" fill="#000000" stroke-width="0.002" d="M 26.899,20.478 L 26.652,20.561 L 26.078,20.313 L 25.791,20.397 L 25.934,20.189 L 26.652,20.189 L 26.345,20.251 L 26.899,20.478 "/>
<path stroke="none" fill="#FFFFFF" stroke-width="0.002" d="M 25.852,20.025 L 26.099,20.107 L 26.693,19.860 L 26.961,19.943 L 26.817,19.736 L 26.119,19.736 L 26.406,19.797 L 25.852,20.025 "/>
<path stroke="none" fill="#FFFFFF" stroke-width="0.002" d="M 25.749,20.251 L 25.502,20.169 L 24.927,20.416 L 24.640,20.334 L 24.784,20.561 L 25.502,20.561 L 25.195,20.478 L 25.749,20.251 "/>
<path stroke="none" fill="#FFFFFF" stroke-width="0.002" d="M 24.702,19.797 L 24.948,19.716 L 25.544,19.943 L 25.811,19.880 L 25.668,20.087 L 24.969,20.087 L 25.257,20.025 L 24.702,19.797 "/>
<path stroke="none" fill="#FFFFFF" stroke-width="0.002" d="M 26.919,20.499 L 26.674,20.582 L 26.099,20.334 L 25.811,20.416 L 25.954,20.211 L 26.674,20.211 L 26.365,20.272 L 26.919,20.499 "/>
<path stroke="#AAE6FF" fill="none" stroke-width="0.002"  d="M 24.107,20.128 L 24.107,20.952 "/>
<path stroke="#AAE6FF" fill="none" stroke-width="0.002"  d="M 27.474,20.128 L 27.474,20.952 "/>
</svg>