<?xml version="1.0" encoding="UTF-8" standalone="no"?>
<!-- Created by diasvg.py -->
<svg width="3.426cm" height="2.001cm" viewBox="21.837 21.999 25.263 24.001"
 xmlns="http://www.w3.org/2000/svg"
 xmlns:xlink="http://www.w3.org/1999/xlink">
<path stroke="none" fill="#AAAAAA" stroke-width="0.002" d="M 25.262,23.412 L 25.260,23.382 L 25.254,23.352 L 25.243,23.323 L 25.227,23.294 L 25.208,23.264 L 25.184,23.236 L 25.157,23.208 L 25.123,23.180 L 25.087,23.153 L 25.047,23.127 L 25.003,23.101 L 24.955,23.076 L 24.904,23.052 L 24.850,23.029 L 24.792,23.007 L 24.730,22.986 L 24.666,22.966 L 24.598,22.948 L 24.528,22.930 L 24.456,22.913 L 24.381,22.898 L 24.304,22.884 L 24.225,22.872 L 24.145,22.861 L 24.063,22.851 L 23.979,22.843 L 23.894,22.837 L 23.809,22.831 L 23.723,22.827 L 23.636,22.825 L 23.550,22.825 L 23.550,22.825 L 23.464,22.825 L 23.377,22.827 L 23.291,22.831 L 23.205,22.837 L 23.120,22.843 L 23.037,22.851 L 22.955,22.861 L 22.875,22.872 L 22.795,22.884 L 22.719,22.898 L 22.644,22.913 L 22.571,22.930 L 22.501,22.948 L 22.434,22.966 L 22.370,22.986 L 22.308,23.007 L 22.250,23.029 L 22.196,23.052 L 22.144,23.076 L 22.096,23.101 L 22.052,23.127 L 22.013,23.153 L 21.976,23.180 L 21.943,23.208 L 21.915,23.236 L 21.891,23.264 L 21.872,23.294 L 21.857,23.323 L 21.846,23.352 L 21.840,23.382 L 21.838,23.412 L 21.838,23.412 L 21.840,23.442 L 21.846,23.472 L 21.857,23.501 L 21.872,23.530 L 21.891,23.559 L 21.915,23.588 L 21.943,23.617 L 21.976,23.644 L 22.013,23.671 L 22.052,23.697 L 22.096,23.723 L 22.144,23.748 L 22.196,23.772 L 22.250,23.795 L 22.308,23.817 L 22.370,23.838 L 22.434,23.858 L 22.501,23.877 L 22.571,23.895 L 22.644,23.911 L 22.719,23.926 L 22.795,23.939 L 22.875,23.952 L 22.955,23.963 L 23.037,23.973 L 23.120,23.981 L 23.205,23.987 L 23.291,23.993 L 23.377,23.997 L 23.464,23.999 L 23.550,24.000 L 23.550,24.000 L 23.636,23.999 L 23.723,23.997 L 23.809,23.993 L 23.894,23.987 L 23.979,23.981 L 24.063,23.973 L 24.145,23.963 L 24.225,23.952 L 24.304,23.939 L 24.381,23.926 L 24.456,23.911 L 24.528,23.895 L 24.598,23.877 L 24.666,23.858 L 24.730,23.838 L 24.792,23.817 L 24.850,23.795 L 24.904,23.772 L 24.955,23.748 L 25.003,23.723 L 25.047,23.697 L 25.087,23.671 L 25.123,23.644 L 25.157,23.617 L 25.184,23.588 L 25.208,23.559 L 25.227,23.530 L 25.243,23.501 L 25.254,23.472 L 25.260,23.442 L 25.262,23.412 "/>
<path stroke="#555555" fill="none" stroke-width="0.002"  d="M 25.243,23.402 L 25.240,23.372 L 25.234,23.344 L 25.223,23.315 L 25.208,23.286 L 25.189,23.257 L 25.164,23.229 L 25.137,23.202 L 25.105,23.175 L 25.069,23.149 L 25.029,23.122 L 24.985,23.097 L 24.938,23.073 L 24.888,23.048 L 24.832,23.026 L 24.774,23.004 L 24.713,22.984 L 24.649,22.964 L 24.582,22.945 L 24.514,22.928 L 24.441,22.912 L 24.366,22.898 L 24.290,22.884 L 24.212,22.872 L 24.131,22.861 L 24.050,22.851 L 23.967,22.844 L 23.882,22.837 L 23.798,22.832 L 23.713,22.828 L 23.626,22.825 L 23.540,22.825 L 23.540,22.825 L 23.453,22.825 L 23.367,22.828 L 23.281,22.832 L 23.197,22.837 L 23.113,22.844 L 23.030,22.851 L 22.948,22.861 L 22.868,22.872 L 22.789,22.884 L 22.714,22.898 L 22.639,22.912 L 22.567,22.928 L 22.498,22.945 L 22.431,22.964 L 22.367,22.984 L 22.305,23.004 L 22.247,23.026 L 22.193,23.048 L 22.142,23.073 L 22.095,23.097 L 22.051,23.122 L 22.011,23.149 L 21.975,23.175 L 21.943,23.202 L 21.915,23.229 L 21.891,23.257 L 21.872,23.286 L 21.856,23.315 L 21.846,23.344 L 21.840,23.372 L 21.838,23.402 L 21.838,23.402 L 21.840,23.432 L 21.846,23.461 L 21.856,23.490 L 21.872,23.518 L 21.891,23.547 L 21.915,23.575 L 21.943,23.603 L 21.975,23.630 L 22.011,23.657 L 22.051,23.683 L 22.095,23.708 L 22.142,23.732 L 22.193,23.756 L 22.247,23.779 L 22.305,23.801 L 22.367,23.822 L 22.431,23.840 L 22.498,23.860 L 22.567,23.876 L 22.639,23.892 L 22.714,23.908 L 22.789,23.921 L 22.868,23.933 L 22.948,23.944 L 23.030,23.954 L 23.113,23.961 L 23.197,23.968 L 23.281,23.973 L 23.367,23.977 L 23.453,23.979 L 23.540,23.980 L 23.540,23.980 L 23.626,23.979 L 23.713,23.977 L 23.798,23.973 L 23.882,23.968 L 23.967,23.961 L 24.050,23.954 L 24.131,23.944 L 24.212,23.933 L 24.290,23.921 L 24.366,23.908 L 24.441,23.892 L 24.514,23.876 L 24.582,23.860 L 24.649,23.840 L 24.713,23.822 L 24.774,23.801 L 24.832,23.779 L 24.888,23.756 L 24.938,23.732 L 24.985,23.708 L 25.029,23.683 L 25.069,23.657 L 25.105,23.630 L 25.137,23.603 L 25.164,23.575 L 25.189,23.547 L 25.208,23.518 L 25.223,23.490 L 25.234,23.461 L 25.240,23.432 L 25.243,23.402 "/>
<path stroke="none" fill="#AAAAAA" stroke-width="0.002" d="M 21.838,22.598 L 21.838,23.423 L 25.243,23.423 L 25.243,22.598 L 21.838,22.598 "/>
<path stroke="none" fill="#C7C7C7" stroke-width="0.002" d="M 25.262,22.588 L 25.260,22.557 L 25.254,22.527 L 25.243,22.498 L 25.227,22.469 L 25.208,22.440 L 25.184,22.411 L 25.157,22.383 L 25.123,22.356 L 25.087,22.328 L 25.047,22.303 L 25.003,22.277 L 24.955,22.251 L 24.904,22.227 L 24.850,22.204 L 24.792,22.182 L 24.730,22.161 L 24.666,22.141 L 24.598,22.123 L 24.528,22.105 L 24.456,22.088 L 24.381,22.074 L 24.304,22.060 L 24.225,22.047 L 24.145,22.036 L 24.063,22.026 L 23.979,22.018 L 23.894,22.012 L 23.809,22.007 L 23.723,22.002 L 23.636,22.000 L 23.550,22.000 L 23.550,22.000 L 23.464,22.000 L 23.377,22.002 L 23.291,22.007 L 23.205,22.012 L 23.120,22.018 L 23.037,22.026 L 22.955,22.036 L 22.875,22.047 L 22.795,22.060 L 22.719,22.074 L 22.644,22.088 L 22.571,22.105 L 22.501,22.123 L 22.434,22.141 L 22.370,22.161 L 22.308,22.182 L 22.250,22.204 L 22.196,22.227 L 22.144,22.251 L 22.096,22.277 L 22.052,22.303 L 22.013,22.328 L 21.976,22.356 L 21.943,22.383 L 21.915,22.411 L 21.891,22.440 L 21.872,22.469 L 21.857,22.498 L 21.846,22.527 L 21.840,22.557 L 21.838,22.588 L 21.838,22.588 L 21.840,22.617 L 21.846,22.647 L 21.857,22.676 L 21.872,22.705 L 21.891,22.735 L 21.915,22.763 L 21.943,22.791 L 21.976,22.819 L 22.013,22.846 L 22.052,22.872 L 22.096,22.898 L 22.144,22.924 L 22.196,22.948 L 22.250,22.971 L 22.308,22.992 L 22.370,23.013 L 22.434,23.033 L 22.501,23.052 L 22.571,23.070 L 22.644,23.086 L 22.719,23.101 L 22.795,23.115 L 22.875,23.127 L 22.955,23.139 L 23.037,23.148 L 23.120,23.156 L 23.205,23.162 L 23.291,23.168 L 23.377,23.172 L 23.464,23.174 L 23.550,23.175 L 23.550,23.175 L 23.636,23.174 L 23.723,23.172 L 23.809,23.168 L 23.894,23.162 L 23.979,23.156 L 24.063,23.148 L 24.145,23.139 L 24.225,23.127 L 24.304,23.115 L 24.381,23.101 L 24.456,23.086 L 24.528,23.070 L 24.598,23.052 L 24.666,23.033 L 24.730,23.013 L 24.792,22.992 L 24.850,22.971 L 24.904,22.948 L 24.955,22.924 L 25.003,22.898 L 25.047,22.872 L 25.087,22.846 L 25.123,22.819 L 25.157,22.791 L 25.184,22.763 L 25.208,22.735 L 25.227,22.705 L 25.243,22.676 L 25.254,22.647 L 25.260,22.617 L 25.262,22.588 "/>
<path stroke="#555555" fill="none" stroke-width="0.002"  d="M 25.243,22.578 L 25.240,22.548 L 25.234,22.520 L 25.223,22.491 L 25.208,22.462 L 25.189,22.433 L 25.164,22.404 L 25.137,22.378 L 25.105,22.350 L 25.069,22.324 L 25.029,22.297 L 24.985,22.273 L 24.938,22.248 L 24.888,22.224 L 24.832,22.201 L 24.774,22.180 L 24.713,22.159 L 24.649,22.140 L 24.582,22.121 L 24.514,22.104 L 24.441,22.088 L 24.366,22.073 L 24.290,22.059 L 24.212,22.047 L 24.131,22.036 L 24.050,22.026 L 23.967,22.019 L 23.882,22.012 L 23.874,22.012 L 23.206,22.012 L 23.197,22.012 L 23.113,22.019 L 23.030,22.026 L 22.948,22.036 L 22.868,22.047 L 22.789,22.059 L 22.714,22.073 L 22.639,22.088 L 22.567,22.104 L 22.498,22.121 L 22.431,22.140 L 22.367,22.159 L 22.305,22.180 L 22.247,22.201 L 22.193,22.224 L 22.142,22.248 L 22.095,22.273 L 22.051,22.297 L 22.011,22.324 L 21.975,22.350 L 21.943,22.378 L 21.915,22.404 L 21.891,22.433 L 21.872,22.462 L 21.856,22.491 L 21.846,22.520 L 21.840,22.548 L 21.838,22.578 L 21.838,22.578 L 21.840,22.607 L 21.846,22.637 L 21.856,22.665 L 21.872,22.693 L 21.891,22.723 L 21.915,22.751 L 21.943,22.778 L 21.975,22.805 L 22.011,22.832 L 22.051,22.858 L 22.095,22.883 L 22.142,22.907 L 22.193,22.931 L 22.247,22.954 L 22.305,22.976 L 22.367,22.997 L 22.431,23.015 L 22.498,23.035 L 22.567,23.051 L 22.639,23.068 L 22.714,23.083 L 22.789,23.096 L 22.868,23.109 L 22.948,23.120 L 23.030,23.129 L 23.113,23.137 L 23.197,23.144 L 23.281,23.149 L 23.367,23.152 L 23.453,23.155 L 23.540,23.155 L 23.540,23.155 L 23.626,23.155 L 23.713,23.152 L 23.798,23.149 L 23.882,23.144 L 23.967,23.137 L 24.050,23.129 L 24.131,23.120 L 24.212,23.109 L 24.290,23.096 L 24.366,23.083 L 24.441,23.068 L 24.514,23.051 L 24.582,23.035 L 24.649,23.015 L 24.713,22.997 L 24.774,22.976 L 24.832,22.954 L 24.888,22.931 L 24.938,22.907 L 24.985,22.883 L 25.029,22.858 L 25.069,22.832 L 25.105,22.805 L 25.137,22.778 L 25.164,22.751 L 25.189,22.723 L 25.208,22.693 L 25.223,22.665 L 25.234,22.637 L 25.240,22.607 L 25.243,22.578 "/>
<path stroke="none" fill="#000000" stroke-width="0.002" d="M 23.581,22.454 L 23.831,22.537 L 24.433,22.289 L 24.703,22.371 L 24.557,22.165 L 23.853,22.165 L 24.142,22.227 L 23.581,22.454 "/>
<path stroke="none" fill="#000000" stroke-width="0.002" d="M 23.478,22.681 L 23.228,22.598 L 22.648,22.846 L 22.357,22.763 L 22.501,22.990 L 23.228,22.990 L 22.917,22.907 L 23.478,22.681 "/>
<path stroke="none" fill="#000000" stroke-width="0.002" d="M 22.418,22.227 L 22.667,22.145 L 23.269,22.371 L 23.540,22.310 L 23.394,22.515 L 22.688,22.515 L 22.978,22.454 L 22.418,22.227 "/>
<path stroke="none" fill="#000000" stroke-width="0.002" d="M 24.661,22.928 L 24.412,23.010 L 23.831,22.763 L 23.540,22.846 L 23.685,22.639 L 24.412,22.639 L 24.100,22.701 L 24.661,22.928 "/>
<path stroke="none" fill="#FFFFFF" stroke-width="0.002" d="M 23.602,22.474 L 23.853,22.557 L 24.453,22.310 L 24.724,22.392 L 24.578,22.186 L 23.872,22.186 L 24.163,22.247 L 23.602,22.474 "/>
<path stroke="none" fill="#FFFFFF" stroke-width="0.002" d="M 23.498,22.701 L 23.248,22.619 L 22.667,22.866 L 22.376,22.784 L 22.522,23.010 L 23.248,23.010 L 22.937,22.928 L 23.498,22.701 "/>
<path stroke="none" fill="#FFFFFF" stroke-width="0.002" d="M 22.439,22.247 L 22.688,22.165 L 23.291,22.392 L 23.560,22.329 L 23.415,22.537 L 22.709,22.537 L 23.000,22.474 L 22.439,22.247 "/>
<path stroke="none" fill="#FFFFFF" stroke-width="0.002" d="M 24.682,22.949 L 24.433,23.032 L 23.853,22.784 L 23.560,22.866 L 23.706,22.661 L 24.433,22.661 L 24.122,22.722 L 24.682,22.949 "/>
<path stroke="#555555" fill="none" stroke-width="0.002"  d="M 21.838,22.578 L 21.838,23.401 "/>
<path stroke="#000000" fill="none" stroke-width="0.002"  d="M 25.243,22.578 L 25.243,23.401 "/>
</svg>